<svg width="512" height="512" viewBox="0 0 512 512" fill="none" xmlns="http://www.w3.org/2000/svg">
<rect width="512" height="512" fill="#1D1715"/>
<g clip-path="url(#clip0_2_5)">
<rect width="256" height="256" transform="translate(128 128)" fill="#1D1715"/>
<path d="M130.04 153V151.248H134.84V137.736H134.672L130.448 141.672L129.272 140.4L133.712 136.248H136.856V151.248H141.272V153H130.04ZM155.255 142.392C155.255 143.64 155.063 144.816 154.679 145.92C154.311 147.008 153.831 148.008 153.239 148.92C152.647 149.816 151.991 150.616 151.271 151.32C150.567 152.008 149.871 152.568 149.183 153H146.591C147.503 152.344 148.311 151.704 149.015 151.08C149.735 150.456 150.367 149.808 150.911 149.136C151.455 148.448 151.911 147.72 152.279 146.952C152.647 146.168 152.951 145.288 153.191 144.312L153.071 144.264C152.655 144.952 152.119 145.528 151.463 145.992C150.823 146.44 149.983 146.664 148.943 146.664C148.207 146.664 147.527 146.544 146.903 146.304C146.295 146.064 145.767 145.72 145.319 145.272C144.887 144.824 144.543 144.288 144.287 143.664C144.047 143.024 143.927 142.304 143.927 141.504C143.927 140.688 144.055 139.944 144.311 139.272C144.583 138.584 144.967 138 145.463 137.52C145.959 137.024 146.551 136.64 147.239 136.368C147.943 136.096 148.719 135.96 149.567 135.96C150.447 135.96 151.239 136.112 151.943 136.416C152.647 136.704 153.239 137.128 153.719 137.688C154.215 138.232 154.591 138.904 154.847 139.704C155.119 140.504 155.255 141.4 155.255 142.392ZM149.591 145.008C150.743 145.008 151.631 144.696 152.255 144.072C152.895 143.448 153.215 142.568 153.215 141.432V141.24C153.215 140.104 152.895 139.224 152.255 138.6C151.631 137.976 150.743 137.664 149.591 137.664C148.439 137.664 147.543 137.976 146.903 138.6C146.279 139.224 145.967 140.104 145.967 141.24V141.432C145.967 142.568 146.279 143.448 146.903 144.072C147.543 144.696 148.439 145.008 149.591 145.008ZM160.501 146.712V144.696H167.461V146.712H160.501ZM173.212 153V151.248H178.012V137.736H177.844L173.62 141.672L172.444 140.4L176.884 136.248H180.028V151.248H184.444V153H173.212ZM192.763 153.288C191.787 153.288 190.931 153.168 190.195 152.928C189.459 152.672 188.843 152.328 188.347 151.896C187.867 151.464 187.499 150.952 187.243 150.36C187.003 149.768 186.883 149.128 186.883 148.44C186.883 147.288 187.195 146.376 187.819 145.704C188.443 145.032 189.267 144.56 190.291 144.288V144.096C189.395 143.792 188.683 143.304 188.155 142.632C187.643 141.944 187.387 141.12 187.387 140.16C187.387 138.88 187.859 137.864 188.803 137.112C189.747 136.344 191.067 135.96 192.763 135.96C194.459 135.96 195.779 136.344 196.723 137.112C197.667 137.864 198.139 138.88 198.139 140.16C198.139 141.12 197.875 141.944 197.347 142.632C196.835 143.304 196.131 143.792 195.235 144.096V144.288C196.259 144.56 197.083 145.032 197.707 145.704C198.331 146.376 198.643 147.288 198.643 148.44C198.643 149.128 198.515 149.768 198.259 150.36C198.019 150.952 197.651 151.464 197.155 151.896C196.659 152.328 196.043 152.672 195.307 152.928C194.587 153.168 193.739 153.288 192.763 153.288ZM192.763 151.584C193.947 151.584 194.875 151.32 195.547 150.792C196.219 150.264 196.555 149.52 196.555 148.56V148.032C196.555 147.072 196.219 146.328 195.547 145.8C194.891 145.272 193.963 145.008 192.763 145.008C191.563 145.008 190.627 145.272 189.955 145.8C189.299 146.328 188.971 147.072 188.971 148.032V148.56C188.971 149.52 189.307 150.264 189.979 150.792C190.651 151.32 191.579 151.584 192.763 151.584ZM192.763 143.376C193.851 143.376 194.675 143.144 195.235 142.68C195.811 142.216 196.099 141.552 196.099 140.688V140.352C196.099 139.488 195.803 138.824 195.211 138.36C194.635 137.896 193.819 137.664 192.763 137.664C191.707 137.664 190.883 137.896 190.291 138.36C189.715 138.824 189.427 139.488 189.427 140.352V140.688C189.427 141.552 189.707 142.216 190.267 142.68C190.843 143.144 191.675 143.376 192.763 143.376ZM203.673 146.712V144.696H210.633V146.712H203.673ZM221.544 153.288C220.568 153.288 219.712 153.168 218.976 152.928C218.24 152.672 217.624 152.328 217.128 151.896C216.648 151.464 216.28 150.952 216.024 150.36C215.784 149.768 215.664 149.128 215.664 148.44C215.664 147.288 215.976 146.376 216.6 145.704C217.224 145.032 218.048 144.56 219.072 144.288V144.096C218.176 143.792 217.464 143.304 216.936 142.632C216.424 141.944 216.168 141.12 216.168 140.16C216.168 138.88 216.64 137.864 217.584 137.112C218.528 136.344 219.848 135.96 221.544 135.96C223.24 135.96 224.56 136.344 225.504 137.112C226.448 137.864 226.92 138.88 226.92 140.16C226.92 141.12 226.656 141.944 226.128 142.632C225.616 143.304 224.912 143.792 224.016 144.096V144.288C225.04 144.56 225.864 145.032 226.488 145.704C227.112 146.376 227.424 147.288 227.424 148.44C227.424 149.128 227.296 149.768 227.04 150.36C226.8 150.952 226.432 151.464 225.936 151.896C225.44 152.328 224.824 152.672 224.088 152.928C223.368 153.168 222.52 153.288 221.544 153.288ZM221.544 151.584C222.728 151.584 223.656 151.32 224.328 150.792C225 150.264 225.336 149.52 225.336 148.56V148.032C225.336 147.072 225 146.328 224.328 145.8C223.672 145.272 222.744 145.008 221.544 145.008C220.344 145.008 219.408 145.272 218.736 145.8C218.08 146.328 217.752 147.072 217.752 148.032V148.56C217.752 149.52 218.088 150.264 218.76 150.792C219.432 151.32 220.36 151.584 221.544 151.584ZM221.544 143.376C222.632 143.376 223.456 143.144 224.016 142.68C224.592 142.216 224.88 141.552 224.88 140.688V140.352C224.88 139.488 224.584 138.824 223.992 138.36C223.416 137.896 222.6 137.664 221.544 137.664C220.488 137.664 219.664 137.896 219.072 138.36C218.496 138.824 218.208 139.488 218.208 140.352V140.688C218.208 141.552 218.488 142.216 219.048 142.68C219.624 143.144 220.456 143.376 221.544 143.376ZM232.454 146.712V144.696H239.414V146.712H232.454ZM245.165 153V151.248H249.965V137.736H249.797L245.573 141.672L244.397 140.4L248.837 136.248H251.981V151.248H256.397V153H245.165ZM264.716 153.288C263.692 153.288 262.812 153.096 262.076 152.712C261.34 152.312 260.732 151.744 260.252 151.008C259.772 150.272 259.42 149.368 259.196 148.296C258.972 147.224 258.86 146 258.86 144.624C258.86 143.264 258.972 142.048 259.196 140.976C259.42 139.888 259.772 138.976 260.252 138.24C260.732 137.504 261.34 136.944 262.076 136.56C262.812 136.16 263.692 135.96 264.716 135.96C265.74 135.96 266.62 136.16 267.356 136.56C268.092 136.944 268.7 137.504 269.18 138.24C269.66 138.976 270.012 139.888 270.236 140.976C270.46 142.048 270.572 143.264 270.572 144.624C270.572 146 270.46 147.224 270.236 148.296C270.012 149.368 269.66 150.272 269.18 151.008C268.7 151.744 268.092 152.312 267.356 152.712C266.62 153.096 265.74 153.288 264.716 153.288ZM264.716 151.536C265.388 151.536 265.964 151.408 266.444 151.152C266.924 150.88 267.308 150.504 267.596 150.024C267.9 149.544 268.124 148.968 268.268 148.296C268.412 147.608 268.484 146.84 268.484 145.992V143.256C268.484 142.424 268.412 141.664 268.268 140.976C268.124 140.288 267.9 139.704 267.596 139.224C267.308 138.744 266.924 138.376 266.444 138.12C265.964 137.848 265.388 137.712 264.716 137.712C264.044 137.712 263.468 137.848 262.988 138.12C262.508 138.376 262.116 138.744 261.812 139.224C261.524 139.704 261.308 140.288 261.164 140.976C261.02 141.664 260.948 142.424 260.948 143.256V145.992C260.948 146.84 261.02 147.608 261.164 148.296C261.308 148.968 261.524 149.544 261.812 150.024C262.116 150.504 262.508 150.88 262.988 151.152C263.468 151.408 264.044 151.536 264.716 151.536ZM264.716 146.04C264.156 146.04 263.764 145.928 263.54 145.704C263.332 145.48 263.228 145.208 263.228 144.888V144.36C263.228 144.04 263.332 143.768 263.54 143.544C263.764 143.32 264.156 143.208 264.716 143.208C265.276 143.208 265.66 143.32 265.868 143.544C266.092 143.768 266.204 144.04 266.204 144.36V144.888C266.204 145.208 266.092 145.48 265.868 145.704C265.66 145.928 265.276 146.04 264.716 146.04ZM278.386 143.352C279.554 143.352 280.426 143.096 281.002 142.584C281.594 142.056 281.89 141.384 281.89 140.568V140.4C281.89 139.504 281.602 138.832 281.026 138.384C280.466 137.936 279.73 137.712 278.818 137.712C277.922 137.712 277.194 137.912 276.634 138.312C276.09 138.696 275.642 139.208 275.29 139.848L273.778 138.696C273.986 138.36 274.242 138.032 274.546 137.712C274.85 137.376 275.202 137.08 275.602 136.824C276.018 136.568 276.49 136.36 277.018 136.2C277.562 136.04 278.178 135.96 278.866 135.96C279.586 135.96 280.258 136.056 280.882 136.248C281.506 136.424 282.05 136.696 282.514 137.064C282.978 137.416 283.338 137.856 283.594 138.384C283.866 138.912 284.002 139.512 284.002 140.184C284.002 140.728 283.914 141.216 283.738 141.648C283.578 142.08 283.346 142.456 283.042 142.776C282.754 143.096 282.41 143.368 282.01 143.592C281.61 143.816 281.186 143.984 280.738 144.096V144.192C281.202 144.288 281.65 144.448 282.082 144.672C282.514 144.88 282.898 145.16 283.234 145.512C283.57 145.848 283.834 146.264 284.026 146.76C284.234 147.24 284.338 147.792 284.338 148.416C284.338 149.136 284.194 149.8 283.906 150.408C283.634 151 283.242 151.512 282.73 151.944C282.234 152.36 281.626 152.688 280.906 152.928C280.202 153.168 279.418 153.288 278.554 153.288C277.818 153.288 277.162 153.208 276.586 153.048C276.026 152.888 275.522 152.672 275.074 152.4C274.642 152.128 274.258 151.824 273.922 151.488C273.602 151.152 273.314 150.8 273.058 150.432L274.57 149.28C274.794 149.616 275.026 149.92 275.266 150.192C275.506 150.464 275.778 150.704 276.082 150.912C276.402 151.104 276.762 151.256 277.162 151.368C277.562 151.48 278.026 151.536 278.554 151.536C279.738 151.536 280.642 151.264 281.266 150.72C281.906 150.176 282.226 149.4 282.226 148.392V148.2C282.226 147.208 281.914 146.44 281.29 145.896C280.682 145.352 279.762 145.08 278.53 145.08H276.538V143.352H278.386Z" fill="#FF8904"/>
</g>
<defs>
<clipPath id="clip0_2_5">
<rect width="256" height="256" fill="white" transform="translate(128 128)"/>
</clipPath>
</defs>
</svg>
